<svg xmlns:xlink="http://www.w3.org/1999/xlink"  id="Layer_1" data-name="Layer 1" xmlns="http://www.w3.org/2000/svg" width="34.11" height="34.11" viewBox="0 0 34.11 34.11"><defs><style>.cls-1{fill:#3b7ea3;}</style></defs><title>original-icon</title><path class="cls-1" d="M17.05,34.11h0A17.05,17.05,0,0,1,17.05,0h0a17.05,17.05,0,0,1,0,34.11Zm0-31.87a14.82,14.82,0,0,0,0,29.63h0a14.82,14.82,0,0,0,0-29.63Z"/><path class="cls-1" d="M26.89,16.91a9.06,9.06,0,0,1-9.43,9.34A9.06,9.06,0,0,1,8,16.91a9.06,9.06,0,0,1,9.43-9.34A9.06,9.06,0,0,1,26.89,16.91Zm-15.82,0a6.22,6.22,0,0,0,6.38,6.55,6.22,6.22,0,0,0,6.38-6.55,6.22,6.22,0,0,0-6.38-6.55A6.22,6.22,0,0,0,11.07,16.91Z"/></svg>
