<svg xmlns:xlink="http://www.w3.org/1999/xlink"  id="Layer_1" data-name="Layer 1" xmlns="http://www.w3.org/2000/svg" width="24.79" height="24.79" viewBox="0 0 24.79 24.79"><defs><style>.cls-1{fill:#565656;}</style></defs><title>simple-icon</title><path class="cls-1" d="M12.4,24.79h0A12.4,12.4,0,0,1,12.39,0h0A12.41,12.41,0,0,1,24.79,12.41h0A12.41,12.41,0,0,1,12.4,24.79Zm0-23.16a10.77,10.77,0,0,0,0,21.54h0a10.77,10.77,0,0,0,0-21.54Z"/><path class="cls-1" d="M16.5,8.65a6.76,6.76,0,0,0-3.67-1.12c-1.75,0-2.95.76-2.95,2s1,1.51,2.72,1.75l.91.12c2.12.29,4.22,1.17,4.22,3.6,0,2.67-2.41,4.13-5.25,4.13a8.5,8.5,0,0,1-5.27-1.76l1.15-1.68a6.6,6.6,0,0,0,4.11,1.44c1.71,0,3.06-.73,3.06-1.94,0-1-1-1.51-2.95-1.77l-1-.14C9.62,13,7.68,12,7.68,9.61,7.68,7,10,5.52,12.85,5.52a8.22,8.22,0,0,1,4.73,1.41Z"/></svg>
