<svg xmlns:xlink="http://www.w3.org/1999/xlink"  id="Layer_1" data-name="Layer 1" xmlns="http://www.w3.org/2000/svg" width="24.79" height="24.79" viewBox="0 0 24.79 24.79"><defs><style>.cls-1{fill:#df4797;}</style></defs><title>cocoa-icon</title><path class="cls-1" d="M11.89,24.72h0a12.39,12.39,0,0,1,0-24.79h0a12.39,12.39,0,0,1,8.75,21.17A12.31,12.31,0,0,1,11.89,24.72Zm0-23.16a10.77,10.77,0,0,0,0,21.54h0A10.77,10.77,0,0,0,22.66,12.33h0A10.78,10.78,0,0,0,11.9,1.55Z" transform="translate(0.5 0.07)"/><path class="cls-1" d="M17.63,8.37,15.86,9.55A4.34,4.34,0,0,0,12.2,7.66a4.52,4.52,0,0,0-4.64,4.76,4.52,4.52,0,0,0,4.64,4.76,4.31,4.31,0,0,0,3.65-1.88l1.72,1.26a6.37,6.37,0,0,1-5.37,2.65,6.58,6.58,0,0,1-6.85-6.79A6.58,6.58,0,0,1,12.2,5.63,6.23,6.23,0,0,1,17.63,8.37Z" transform="translate(0.5 0.07)"/></svg>
